/* XPM */
static char *dummy[]={
"32 32 881 2",
"lU c None",
".b c #265c76",
".e c #26617d",
"lP c #284c7c",
"a4 c #285e7a",
"iC c #29497b",
".f c #295b7f",
"c0 c #2a587a",
"Qt c #2a5a7a",
".E c #2a607b",
"#E c #2a627c",
"k0 c #2b4887",
"lO c #2b4e79",
"lh c #2b517e",
"## c #2b5b7d",
"by c #2b5d7c",
"#C c #2b5d7d",
"#. c #2b607a",
".8 c #2b6278",
"#F c #2b6280",
"kZ c #2c4683",
"kq c #2c4980",
"jY c #2c4b82",
"i3 c #2c4c7f",
"kI c #2c4e7d",
"lj c #2c4f7e",
"#D c #2c5e7c",
"ay c #2c5f7c",
".F c #2c617e",
"#b c #2c617f",
".# c #2c637c",
"kG c #2d4a83",
"k1 c #2d4b84",
"jZ c #2d4c83",
"lk c #2d4d82",
"kH c #2d4e84",
"jX c #2d4f7f",
"lT c #2d537e",
"#5 c #2d5e7e",
"#a c #2d5f7b",
".d c #2d5f7c",
"az c #2d607c",
".G c #2d617b",
".h c #2d6378",
"#8 c #2d637c",
"#7 c #2d6682",
"lL c #2e477e",
"lM c #2e4983",
"li c #2e4c80",
"k2 c #2e4d7e",
"lm c #2e4e82",
"b3 c #2e5d80",
".c c #2e5f7b",
".9 c #2e6079",
"cu c #2e627d",
"k3 c #2f4882",
"jv c #2f4b81",
"lN c #2f4d7b",
"ll c #2f4e7f",
"lR c #2f4f82",
"kp c #2f4f83",
"lQ c #2f5183",
".J c #2f5d81",
"a5 c #2f5e7d",
"aA c #2f607c",
".g c #2f617d",
".H c #2f637e",
"#6 c #2f657b",
"kJ c #304b81",
".a c #30607a",
"lS c #314f7a",
"ln c #314f84",
"kY c #315081",
"jw c #334c80",
"ko c #33507f",
".I c #33627b",
".K c #336481",
"a6 c #38667e",
"hK c #3c3e2a",
"ic c #534622",
"iD c #61562a",
"iE c #726533",
".u c #756129",
"i4 c #766636",
"i5 c #7d6d34",
"jx c #816d35",
".v c #836e32",
"jy c #847437",
"j0 c #877337",
".3 c #887932",
".5 c #89742f",
".B c #897530",
".1 c #897a37",
".w c #8a7633",
"kr c #8a763a",
".x c #8a7933",
".y c #8a7a35",
"#w c #8b7130",
"k4 c #8b753b",
"av c #8b7634",
"#4 c #8b7831",
"cZ c #8c7836",
"bw c #8c7c38",
".7 c #8d7630",
".A c #8d7632",
"#A c #8d7832",
"j1 c #8d783d",
"#x c #8d7934",
"a2 c #8d7935",
"#B c #8d7a34",
".D c #8e7330",
"bx c #8e7936",
"ls c #8e7d3c",
"kO c #8e7d3d",
".6 c #8f7635",
"#1 c #8f7637",
".4 c #8f7733",
"ct c #8f7836",
".C c #8f7934",
"#z c #8f7935",
"j2 c #8f793b",
"#3 c #8f7a35",
".2 c #8f7b38",
"b2 c #8f7c38",
"#y c #907733",
"ax c #907836",
"a1 c #90783a",
"b1 c #907b3b",
"jz c #907b3d",
"lv c #907f3e",
"kK c #907f3f",
"k8 c #908142",
"aw c #917a36",
"au c #917a39",
"kt c #917c3e",
"ks c #917e3e",
"kv c #917f3c",
"l. c #917f3f",
".z c #927a39",
"lp c #927f3f",
"kM c #927f40",
"a3 c #937b38",
"kL c #937d3d",
"lr c #937e3d",
"k7 c #937e42",
"k9 c #937f3f",
"lu c #938140",
"#2 c #947a36",
"k5 c #947f3f",
"lt c #947f41",
"kP c #948040",
"k6 c #948042",
"kN c #948143",
"lq c #948144",
"lw c #948241",
"ku c #957e40",
"lo c #957f44",
"j3 c #958040",
"hj c #325e6a",
"kF c #28507a",
"ib c #2e5577",
"kn c #2f4e79",
"#c c #346281",
"l# c #877d36",
"b4 c #2f6277",
"lx c #66703f",
"i2 c #2a5677",
"aB c #32687c",
".i c #3c7182",
"i6 c #7d7c36",
"#G c #33707e",
"dr c #306f70",
"#9 c #36727b",
".L c #3c7581",
"#v c #948c49",
"lK c #235b64",
"lg c #265e6b",
"id c #5d692c",
"bv c #8b8943",
".t c #767545",
"kQ c #758d33",
"dq c #848f3f",
"gU c #3a7f78",
"jA c #718d32",
".0 c #94995c",
"hJ c #2c7661",
"a0 c #8c9b51",
"#0 c #949b56",
"cs c #809a4a",
"ju c #1d7753",
"kw c #5c9327",
"dU c #4d997c",
".j c #5e9490",
"j4 c #5f972c",
"ly c #0e6020",
"bz c #419070",
"at c #95a45f",
"cv c #358d64",
"gv c #4a9678",
"kX c #188041",
"la c #4b9a1f",
".s c #809567",
"dT c #69a540",
"iB c #22864b",
"#d c #63a389",
"lJ c #14853a",
"eh c #6dab93",
"hL c #4c9338",
"f3 c #59a778",
"hi c #329451",
"iF c #4fa433",
".M c #70b190",
"jW c #12902f",
".k c #7eb79b",
"kE c #0e932b",
"eH c #72b48f",
"lf c #0f9629",
"fz c #67b582",
"e8 c #71b88a",
"km c #0d9825",
"a7 c #56b16d",
"lz c #059011",
".r c #93ba8c",
"eg c #67ba51",
"#u c #a2c98b",
"b0 c #7bc063",
".Z c #a6cc92",
"#H c #72c086",
"lI c #08a21a",
"cY c #68c055",
"c1 c #38b64a",
"gT c #40b34e",
"lB c #04a00f",
"lC c #04a111",
"lA c #05a00d",
"lD c #06a212",
"lE c #06a313",
"lF c #07a516",
"lG c #08a516",
"lH c #08a617",
"kR c #1bae0b",
"aC c #69c577",
".l c #96d0a4",
"a. c #72c87e",
"i1 c #13af1d",
"i7 c #34ba28",
"b5 c #4ac055",
"lb c #11b407",
"ia c #26b630",
"hk c #52c050",
"#Z c #9fd995",
".q c #a4d9ac",
"kW c #03b00c",
"eG c #79cc77",
"bu c #81d279",
".N c #96d99d",
"le c #02b109",
"kx c #0fb606",
"j5 c #16b910",
"jB c #22bc1b",
"ie c #42c33d",
"gu c #4dc452",
"#e c #8bd692",
"aZ c #8bd784",
"as c #95da8e",
".m c #a5deab",
"kT c #01af03",
"ke c #01af04",
"kf c #01af05",
"kg c #01b005",
"kh c #01b006",
"kD c #01b106",
"kC c #02b003",
"kU c #02b006",
"ki c #02b107",
"kj c #02b108",
"kV c #02b109",
"kk c #02b208",
"kl c #02b209",
"ld c #03b103",
"jV c #03b209",
"jU c #03b20a",
"kd c #04b104",
"jT c #04b20a",
"jS c #05b10a",
"jR c #06b10a",
"kS c #06b203",
"jQ c #07b10b",
"jP c #08b10b",
"kB c #08b404",
"jt c #08b40f",
"jO c #09b10b",
"js c #09b40f",
"jr c #0ab411",
"lc c #0ab505",
"kA c #0ab604",
"jq c #0bb411",
"kz c #0bb604",
"ky c #0bb605",
"kc c #0bb606",
"jp c #0cb412",
"kb c #0db707",
"jN c #0eb40d",
"jo c #0eb413",
"ka c #0eb707",
"k# c #0fb709",
"jn c #10b414",
"k. c #10b709",
"j9 c #12b70b",
"jk c #13b415",
"i0 c #13b619",
"j8 c #13b80c",
"jm c #14b213",
"iZ c #14b619",
"j7 c #14b80d",
"iY c #15b61a",
"j6 c #15b80e",
"jM c #15b80f",
"iX c #16b71b",
"jL c #16b910",
"iV c #17b61c",
"iW c #17b71b",
"jK c #17b911",
"iU c #18b61c",
"jJ c #18ba12",
"jl c #19b113",
"jI c #19ba13",
"jH c #1aba15",
"iA c #1bb922",
"jG c #1bba15",
"iz c #1cb922",
"jF c #1dbb17",
"ji c #1dbb18",
"jj c #1eb615",
"iy c #1eb923",
"ix c #1eb924",
"jE c #1ebb18",
"iw c #1fb924",
"jD c #1fbc19",
"iv c #20b925",
"jC c #20bc1a",
"iu c #21b925",
"it c #22b826",
"jg c #23bb19",
"jd c #23bd1d",
"jh c #24b917",
"jf c #24bb1a",
"jc c #25bd1e",
"i# c #26bb2c",
"i. c #26bc2d",
"jb c #26be20",
"ja c #27be21",
"h9 c #28bb2e",
"j# c #28be22",
"h8 c #29bb2e",
"je c #2ab91a",
"h7 c #2abb2f",
"j. c #2abf23",
"h6 c #2bbb2f",
"i9 c #2bbe24",
"eO c #2cbb2a",
"h5 c #2cbb2f",
"e1 c #2cbf25",
"i8 c #2cbf26",
"h4 c #2dbb30",
"eP c #2dbc29",
"e0 c #2dbf26",
"eZ c #2dbf27",
"eo c #2ebe30",
"eY c #2ebf27",
"em c #2ebf35",
"en c #2ec035",
"ep c #2fbc2c",
"hI c #2fbe35",
"eV c #2fbf28",
"el c #2fbf35",
"eU c #2fc029",
"eB c #30c029",
"eA c #30c02a",
"eq c #31bd2c",
"er c #31be2c",
"d1 c #31be33",
"hH c #31be36",
"hG c #31be37",
"d0 c #31bf38",
"eC c #31c02a",
"eD c #31c02b",
"dZ c #31c037",
"d2 c #32bd2f",
"hF c #32bd37",
"es c #32bf2c",
"ez c #32c02a",
"ew c #32c02c",
"et c #32c02d",
"dY c #32c038",
"dX c #32c039",
"iJ c #32c12b",
"hE c #33bd38",
"eT c #33be29",
"d3 c #33be2f",
"ex c #33bf2b",
"eu c #33c02c",
"dW c #33c039",
"iI c #33c12d",
"iT c #34ac17",
"hD c #34bd38",
"d4 c #34bf2f",
"dx c #34bf36",
"ev c #34c02d",
"iH c #34c12e",
"dv c #34c13a",
"dw c #34c13b",
"hC c #35bd38",
"dy c #35be32",
"eN c #35bf39",
"d5 c #35c02f",
"d7 c #35c12f",
"du c #35c13b",
"dt c #35c13c",
"d6 c #36c12f",
"ds c #36c13c",
"iG c #36c230",
"ey c #37be29",
"hB c #37be39",
"dz c #37bf32",
"d9 c #37c130",
"d8 c #37c231",
"fj c #38b922",
"e. c #38c231",
"dA c #39c034",
"e# c #39c233",
"c3 c #39c23f",
"c2 c #39c240",
"hh c #3ac03f",
"ea c #3ac233",
"c4 c #3ac240",
"hg c #3bc040",
"c5 c #3bc241",
"eb c #3bc335",
"hf c #3cc041",
"ec c #3cc335",
"c6 c #3cc342",
"fg c #3db925",
"he c #3dc041",
"c7 c #3dc13e",
"ed c #3dc337",
"hd c #3ec041",
"ee c #3ec337",
"ek c #3ec344",
"hc c #3fc042",
"hA c #3fc23b",
"ef c #3fc438",
"iq c #40b723",
"ij c #40bd2e",
"c8 c #40c13c",
"dV c #40c346",
"ig c #40c43a",
"hb c #41c142",
"dH c #41c43a",
"e2 c #41c43b",
"cw c #41c447",
"cx c #41c448",
"c9 c #42c23e",
"dI c #42c43b",
"if c #42c43c",
"cy c #42c449",
"cz c #43c449",
"dJ c #43c53c",
"gS c #44c349",
"dK c #44c53d",
"cA c #44c54a",
"ih c #45bc2f",
"gR c #45c24a",
"dL c #45c53e",
"dM c #45c53f",
"cB c #45c54b",
"gQ c #46c24a",
"cC c #46c54c",
"hS c #46c640",
"gP c #47c24a",
"dN c #47c640",
"dO c #47c641",
"cD c #47c64d",
"gO c #48c24a",
"dP c #48c642",
"cE c #48c64d",
"hR c #48c742",
"hV c #49c038",
"cF c #49c449",
"dQ c #49c643",
"ha c #49c645",
"hQ c #49c743",
"h1 c #4aba2e",
"hT c #4ac33c",
"dR c #4ac643",
"dS c #4ac644",
"hP c #4ac744",
"hM c #4bc547",
"hO c #4bc645",
"hN c #4bc646",
"h# c #4bc745",
"cG c #4cc448",
"gN c #4cc54b",
"de c #4cc746",
"b6 c #4cc752",
"dE c #4dba30",
"df c #4dc747",
"b7 c #4dc754",
"h. c #4dc846",
"g9 c #4dc847",
"gt c #4ec452",
"b8 c #4ec754",
"dg c #4ec848",
"hx c #4fbf3a",
"gs c #4fc553",
"ho c #4fc848",
"dh c #4fc849",
"di c #4fc84a",
"b9 c #4fc855",
"gr c #50c553",
"dj c #50c84a",
"g8 c #50c94a",
"c. c #50c956",
"gq c #51c453",
"c# c #51c857",
"g7 c #51c94b",
"ca c #51c957",
"eM c #51c958",
"hu c #52c03c",
"dk c #52c84b",
"dl c #52c94c",
"cb c #52c959",
"hn c #53c84f",
"eE c #53c94c",
"dm c #53c94d",
"fr c #54c545",
"hl c #54c650",
"hm c #54c74f",
"dn c #54c94d",
"g6 c #54c94e",
"cc c #54c959",
"gM c #54ca4e",
"cd c #55c754",
"do c #55c94e",
"dp c #55c94f",
"cH c #56c045",
"gL c #56ca4f",
"g5 c #56ca50",
"hW c #57b831",
"f2 c #57c75c",
"gp c #57c855",
"cN c #57ca51",
"g4 c #57cb50",
"gK c #57cb51",
"ce c #58c754",
"f1 c #58c75c",
"bA c #58ca5e",
"gJ c #58cb51",
"cO c #58cb52",
"bB c #58cb5f",
"f0 c #59c75c",
"bC c #59ca60",
"g3 c #59cb51",
"cP c #59cb52",
"gI c #59cb53",
"cQ c #5acb53",
"e3 c #5acb54",
"fZ c #5bc75d",
"cR c #5bcb54",
"cS c #5bcb55",
"bD c #5bcb61",
"bE c #5bcb62",
"g2 c #5ccb55",
"go c #5ccb56",
"gH c #5ccc55",
"bF c #5ccc62",
"gX c #5dc959",
"gW c #5dc95b",
"cg c #5dca57",
"gY c #5dca59",
"g1 c #5dcb56",
"g0 c #5dcb57",
"gZ c #5dcb58",
"gV c #5dcb61",
"cT c #5dcc56",
"cU c #5dcc57",
"bG c #5dcc63",
"bH c #5ecb64",
"cV c #5ecc57",
"gG c #5ecc58",
"gn c #5ecd58",
"hs c #5fba39",
"cW c #5fcc58",
"bI c #5fcc65",
"gF c #5fcd59",
"fc c #60ca5b",
"bJ c #60cc65",
"fs c #60cd59",
"cX c #61cc59",
"gE c #61cd5a",
"fy c #62c965",
"gm c #62ca55",
"bK c #62ca61",
"fY c #62cc5f",
"gD c #62cd5b",
"fx c #63c966",
"ck c #63cd5c",
"cl c #63ce5d",
"gC c #64ce5d",
"a8 c #64ce6a",
"fw c #65ca66",
"a9 c #65cd6b",
"cm c #65ce5e",
"gy c #66cb65",
"fX c #66ce60",
"b. c #66ce6c",
"ci c #67c754",
"bM c #67cc62",
"gz c #67cc63",
"gA c #67cd62",
"cn c #67ce60",
"gB c #67ce61",
"gx c #67ce6b",
"b# c #67ce6d",
"fW c #67cf60",
"gw c #67cf6d",
"bL c #68c85d",
"co c #68cf61",
"ba c #68cf6e",
"cp c #69cf62",
"bb c #69cf6f",
"cq c #6acf63",
"bc c #6acf70",
"bd c #6acf71",
"bO c #6bce65",
"cr c #6bcf64",
"be c #6bd072",
"e7 c #6ccc6f",
"ej c #6ccf72",
"bN c #6dca60",
"fv c #6dcf68",
"bf c #6dcf71",
"bQ c #6ed067",
"bg c #6fcd6c",
"bR c #6fd068",
"ft c #6fd168",
"f7 c #70ce6c",
"f6 c #70ce6e",
"e6 c #70ce70",
"f8 c #70cf6c",
"bS c #70d069",
"g. c #70d06a",
"f9 c #70d06b",
"f5 c #70d074",
"aD c #70d077",
"fu c #70d16a",
"bh c #71ce6d",
"bT c #71d16a",
"f4 c #71d177",
"aE c #71d178",
"bU c #72d16b",
"bV c #72d16c",
"aF c #72d178",
"bi c #73d06f",
"bW c #73d16d",
"eL c #73d17a",
"aG c #73d279",
"fb c #74cf70",
"bX c #74d26d",
"e4 c #74d26e",
"aH c #74d27a",
"bP c #75c65c",
"aI c #75d27a",
"bj c #76d070",
"bY c #76d26f",
"eF c #76d270",
"aJ c #76d27c",
"gf c #77c151",
"bZ c #77d270",
"e5 c #77d272",
"aL c #77d27d",
"aK c #77d37d",
"bk c #78d272",
"fT c #79c255",
"fD c #79d077",
"aM c #79d27c",
"bl c #79d372",
"fE c #7ad176",
"fG c #7ad275",
"fF c #7ad276",
"fC c #7ad27d",
"bm c #7ad374",
"a# c #7ad480",
"aN c #7bd079",
"bn c #7bd375",
"fB c #7bd480",
"aa c #7bd481",
"bo c #7cd475",
"aO c #7dd179",
"bp c #7dd476",
"bq c #7dd477",
"fA c #7dd482",
"ab c #7dd583",
"br c #7ed478",
"ac c #7ed484",
"aP c #7fd37b",
"bs c #7fd579",
"ad c #7fd585",
"bt c #80d57a",
"ae c #80d586",
"fa c #81d27f",
"aQ c #81d47c",
"af c #81d587",
"fK c #82c35b",
"f# c #82d586",
"ag c #82d588",
"aR c #83d57d",
"#I c #83d689",
"f. c #84d68a",
"#J c #84d68b",
"ah c #85d487",
"aS c #85d67e",
"#K c #85d68c",
"e9 c #85d78b",
"aT c #86d67f",
"aU c #86d780",
"ai c #87d384",
"#L c #87d78d",
"aV c #88d781",
"aW c #88d782",
"#M c #88d78f",
"aj c #89d585",
"aX c #89d782",
"#N c #89d890",
"#O c #8ad791",
"aY c #8ad883",
"ak c #8cd686",
"#P c #8cd892",
"al c #8ed888",
"#f c #8ed894",
"eK c #8ed994",
"#Q c #8fd790",
"#g c #8fda96",
"am c #90d889",
"eJ c #90d997",
"an c #91d98a",
"#h c #91d997",
"eI c #91da98",
"#R c #92d78f",
"ao c #92da8b",
"#i c #92da98",
"ap c #93da8c",
"#j c #93da9a",
"aq c #94da8d",
"ar c #94da8e",
"#k c #94da9a",
"#S c #95d890",
"#l c #96db9c",
"#T c #97d992",
"#m c #97db9d",
"ei c #98db9f",
"#n c #99d999",
".O c #99db9f",
"#U c #9adb94",
".P c #9adca0",
"#V c #9bdb95",
".Q c #9bdca2",
"#o c #9cd998",
".R c #9ddca3",
"#W c #9ddd97",
".S c #9edca4",
"#X c #9edd98",
"#p c #9fdb9a",
"#Y c #9fdd98",
".T c #9fdda6",
"#q c #a1dc9c",
".U c #a1dda6",
".V c #a3dba1",
"#r c #a4dd9d",
".W c #a6dca2",
"#s c #a6de9f",
".n c #a6dfac",
".X c #a8dda4",
"#t c #a8dfa1",
".o c #a8dfae",
".p c #a9e0af",
".Y c #abdfa6",
"iO c #46b01a",
"fo c #50ae1d",
"dC c #55b42b",
"iM c #5ba818",
"is c #5ca118",
"iQ c #5ea212",
"dB c #5fad25",
"ir c #60a318",
"hZ c #60b029",
"hX c #61b12a",
"hz c #62b22d",
"eW c #63a619",
"hy c #63b22e",
"d. c #64b02e",
"h3 c #65a41e",
"il c #68a71d",
"hp c #68b637",
"h2 c #6aa81f",
"ht c #6ab130",
"dF c #6da822",
"cJ c #6eb438",
"gj c #76bb47",
"dc c #77a929",
"cL c #7bac31",
"fV c #7cbc4d",
"ga c #80be52",
"gh c #81b33f",
"fN c #84b13e",
"fP c #86af3c",
"fQ c #88b03d",
"gc c #8bae3d",
"eX c #68a317",
"eQ c #6ca118",
"iN c #729d11",
"dD c #72a41e",
"fe c #749d14",
"fm c #779b11",
"hw c #7aa524",
"hv c #7ba625",
"dG c #7d9f1c",
"iP c #7f960c",
"im c #809913",
"iK c #82970f",
"iL c #839711",
"db c #839f1f",
"d# c #849e1e",
"cj c #86ac35",
"hr c #87a022",
"fd c #87a227",
"fO c #8aab37",
"g# c #90ab3b",
"gb c #91a836",
"fU c #97a22e",
"fS c #9b9e29",
"fH c #9ba73a",
"fI c #9ca434",
"fh c #85950e",
"iR c #878f0a",
"ip c #87950f",
"fi c #88940d",
"io c #889510",
"eS c #8b930e",
"h0 c #8c9614",
"fk c #8f900b",
"eR c #8f910d",
"iS c #908b08",
"fq c #919311",
"hq c #919a1c",
"ii c #929210",
"fl c #978c08",
"fp c #979416",
"gl c #999920",
"ff c #9a8d0b",
"fn c #9b8b08",
"gi c #9c9820",
"in c #9d8b09",
"gk c #9d971e",
"ch c #9e951c",
"hU c #9f8d0e",
"cf c #9f9219",
"dd c #a08e11",
"cM c #a28f14",
"fL c #a2941c",
"gg c #a2951d",
"gd c #a2951e",
"fJ c #a39c2a",
"ge c #a59119",
"fR c #a89119",
"ik c #a28908",
"da c #ac8509",
"hY c #b18205",
"fM c #b38409",
"cK c #b58004",
"cI c #b67f03",
"Qt.#.a.b.c.d.e.f.g.h.i.j.k.l.m.n.o.p.q.r.s.t.u.v.w.x.y.z.A.B.C.D",
".E.F.G.H.I.g.J.K.L.M.N.O.P.Q.R.S.T.U.V.W.X.Y.Z.0.1.w.2.3.4.5.6.7",
".8.9#.###a#b#c#d#e#f#g#h#i#j#k#l#m#n#o#p#q#r#s#t#u#v#w#x#y#z#A#B",
"#C.G#D#E#F#G#H#I#J#K#L#M#N#O#P#f#Q#R#S#T#U#V#W#X#Y#Z#0#1#A#2#3#4",
"#5#6#7#8#9a.a#aaabacadaeafag#Iahaiajakalamanaoapaqarasatauavawax",
"ayazaAaBaCaDaEaFaGaHaIaJaKaLaMaNaOaPaQaRaSaTaUaVaWaXaYaZa0a1a2a3",
"a4a5a6a7a8a9b.b#babbbcbdbebfbgbhbibjbkblbmbnbobpbqbrbsbtbubvbwbx",
"bya5bzbAbBbCbDbEbFbGbHbIbJbKbLbMbNbObPbQbRbSbTbUbVbWbXbYbZb0b1b2",
"b3b4b5b6b7b8b9c.c#cacbcccdcecfcgchcicjckclcmcmcncncocpcqcrcrcsct",
"cucvcwcxcyczcAcBcCcDcEcFcGcHcIcJcKcLcMcNcOcPcQcRcScTcUcVcWcXcYcZ",
"c0c1c2c3c3c3c2c4c5c6c7c8c9d.d#dadbdcdddedfdgdhdidjdkdldmdndodpdq",
"drdsdsdtdudududvdwdxdydzdAdBdCdDdEdFdGdHdIdJdKdLdMdNdOdPdQdRdSdT",
"dUdVdWdXdYdYdZd0d1d2d3d4d5d5d6d6d7d7d6d6d8d9e.e#eaebecedeeefdIeg",
"eheiejekelemeneoepeqereseteuevewewexeyezeAeBeBeBeBeCeCeDd6eEeFeG",
"eHeIeJeKeLeMeNeOePeQeReSeTeBeBeUeVeWeWeXeYeZe0e0e1eVe2e3e4e5e6e7",
"e8#Le9f.#If#fafbfcfdfefffgfhfifjfkflfmfnfofpfqfrfsftbTfufvfwfxfy",
"fzfAaafBfCfDfEfFfGfHfIfJfKfLfMfNfOfPfQfRfSfTfUfVcpfWfXfYfZf0f1f2",
"f3aFf4f5f6f7f8f9g.g#gagbgcgdgegffLggghgigjgkglgmgngogpgqgrgsgtgu",
"gvgwgxgygzbMgAgBfXcmgCclgDgEgFgGcUgHe3gIgJgKgLgMdmgNgOgPgQgRgSgT",
"gUgVgWgXgYgZg0g1g2cRcQg3g4g5g6dmdlg7g8dhg9h.h#hahbhchdhehfhghhhi",
"hjhkhlhmhng6dmdlg7g8hohphqhrhshthuhvhwhxhyhzhAhBhChDhEhFhGhHhIhJ",
"hKhLhMhNhOhPhQhRdOhShThUhVhWhXhYhZh0h0h1h2h3h4h5h6h7h8h9i.i#iaib",
"icidieifigigefefedecihiiijikiliminioipiqirisitiuiviwixiyiziAiBiC",
"iDiEiFd8iGd7iHiIiJeCeUiKiLfniMiNiOiPiQiRiSiTiUiViWiXiYiZi0i1i2i3",
"i4i5i6i7i8i9j.j#jajbjcjdjejfjgjhjijjjkjljmjnjojojpjqjrjsjtjujvjw",
"jxjyjzjAjBjCjDjEjFjGjHjIjJjKjLjMjNjOjPjQjRjSjSjTjUjVjVjVjWjXjYjZ",
"j0j1j2j3j4j5j6j7j8j9k.k#kakbkckdkekfkgkhkikjkkkkklklklkmknkokpkq",
"krksktkukvkwkxkykykzkzkzkAkBkCkekgkhkDkikjkjklkljVjVkEkFkGkHkIkJ",
"kKkLkMkNkOkPkQkRkzkzkzkAkSkTkekgkUkikikkkkjVkVklkWkXkYkZk0k1k2k3",
"k4k5k6k7k8k9l.l#lalblcldkTkekfkhkikikjkjkkjVlelflglhliljlklllmln",
"lolplqlrlsltlulvlwlxlylzlAlBlClDlElFlGlHlIlJlKlLlMlNlOlPlQlRlSlT",
"lUlUlUlUlUlUlUlUlUlUlUlUlUlUlUlUlUlUlUlUlUlUlUlUlUlUlUlUlUlUlUlU"};
